<?xml version="1.0" encoding="utf-8"?>
<!-- Generator: Adobe Illustrator 24.0.2, SVG Export Plug-In . SVG Version: 6.00 Build 0)  -->
<svg version="1.1" id="Capa_1" xmlns="http://www.w3.org/2000/svg" xmlns:xlink="http://www.w3.org/1999/xlink" x="0px" y="0px"
	 viewBox="0 0 283.46 481.89" style="enable-background:new 0 0 283.46 481.89;" xml:space="preserve">
<style type="text/css">
	.st0{fill:url(#SVGID_1_);}
	.st1{fill:url(#SVGID_2_);}
</style>
<path d="M59.82,330.03v-12.86c2.45,0.41,5.51,0.61,7.76,0.61c7.14,0,12.04-4.29,12.04-14.08V192.25h15.72V303.9
	c0,18.57-9.8,27.15-25.72,27.15C65.94,331.05,63.29,330.85,59.82,330.03z M78.59,151.84h17.96v17.35H78.59V151.84z"/>
<path d="M111.34,245.53v-0.41c0-29.8,23.27-55.11,54.09-55.11c20,0,32.45,8.37,42.25,18.78l-10.41,11.02
	c-8.37-8.78-17.76-15.92-32.05-15.92c-21.43,0-37.76,18.17-37.76,40.82v0.41c0,22.86,16.74,41.03,38.78,41.03
	c13.47,0,23.88-6.74,32.25-15.72l10,9.39c-10.61,11.84-23.27,20.41-43.07,20.41C134.61,300.23,111.34,275.12,111.34,245.53z"/>
<g>
	<path d="M111,319.74h1.55v11.02H111V319.74z M111.79,325.02h3.52c0.33,0,0.63-0.08,0.88-0.24c0.25-0.16,0.45-0.38,0.59-0.67
		s0.21-0.62,0.21-0.99c0-0.38-0.07-0.71-0.21-1s-0.33-0.51-0.59-0.67c-0.25-0.16-0.55-0.24-0.88-0.24h-3.52v-1.47h3.47
		c0.66,0,1.24,0.14,1.74,0.42c0.5,0.28,0.89,0.68,1.16,1.19c0.28,0.51,0.41,1.1,0.41,1.77c0,0.67-0.14,1.26-0.41,1.77
		c-0.28,0.51-0.66,0.9-1.16,1.18c-0.5,0.28-1.08,0.42-1.74,0.42h-3.47V325.02z"/>
	<path d="M120.51,319.74h1.55v11.03h-1.55V319.74z M121.18,324.63h3.76c0.29,0,0.55-0.07,0.78-0.21c0.23-0.14,0.4-0.34,0.53-0.6
		c0.13-0.26,0.19-0.56,0.19-0.9c0-0.34-0.06-0.64-0.19-0.9c-0.12-0.26-0.3-0.46-0.52-0.6c-0.23-0.14-0.49-0.21-0.78-0.21h-3.76
		v-1.47h3.7c0.64,0,1.2,0.13,1.68,0.39c0.48,0.26,0.86,0.64,1.12,1.12c0.27,0.48,0.4,1.04,0.4,1.67c0,0.63-0.13,1.19-0.4,1.67
		c-0.27,0.48-0.64,0.86-1.13,1.12c-0.48,0.26-1.04,0.39-1.67,0.39h-3.7V324.63z M124.19,325.76l1.54-0.35l2.82,5.35h-1.83
		L124.19,325.76z"/>
	<path d="M131.94,330.38c-0.59-0.34-1.04-0.81-1.36-1.42c-0.32-0.61-0.48-1.33-0.48-2.13v-3.12c0-0.81,0.16-1.52,0.48-2.13
		c0.32-0.61,0.78-1.09,1.36-1.43c0.59-0.34,1.26-0.5,2.03-0.5c0.77,0,1.45,0.17,2.03,0.5c0.59,0.34,1.04,0.81,1.36,1.43
		c0.32,0.61,0.48,1.33,0.48,2.13v3.12c0,0.81-0.16,1.52-0.48,2.13c-0.32,0.61-0.77,1.09-1.36,1.42c-0.59,0.34-1.26,0.5-2.03,0.5
		C133.2,330.88,132.53,330.71,131.94,330.38z M135.17,329.05c0.35-0.2,0.62-0.5,0.8-0.87c0.19-0.38,0.28-0.81,0.28-1.31v-3.23
		c0-0.5-0.09-0.93-0.28-1.31s-0.46-0.67-0.8-0.87c-0.35-0.2-0.75-0.31-1.2-0.31s-0.86,0.1-1.2,0.31s-0.61,0.5-0.8,0.87
		c-0.19,0.38-0.28,0.81-0.28,1.31v3.23c0,0.5,0.09,0.93,0.28,1.31c0.19,0.38,0.46,0.67,0.8,0.87s0.75,0.31,1.2,0.31
		S134.83,329.25,135.17,329.05z"/>
	<path d="M147.58,324.83v1.93c0,0.82-0.16,1.54-0.48,2.16s-0.77,1.11-1.35,1.45c-0.58,0.34-1.26,0.51-2.03,0.51
		c-0.78,0-1.46-0.16-2.05-0.48c-0.59-0.32-1.04-0.77-1.37-1.36c-0.32-0.59-0.49-1.27-0.49-2.04v-3.25c0-0.82,0.16-1.54,0.48-2.16
		s0.77-1.1,1.35-1.44c0.58-0.34,1.26-0.51,2.03-0.51c0.63,0,1.21,0.14,1.75,0.41c0.53,0.27,0.98,0.65,1.34,1.15
		c0.36,0.5,0.6,1.07,0.73,1.72h-1.68c-0.09-0.37-0.24-0.69-0.46-0.95s-0.47-0.47-0.77-0.61c-0.29-0.14-0.6-0.21-0.91-0.21
		c-0.46,0-0.85,0.11-1.2,0.33c-0.34,0.22-0.61,0.52-0.8,0.91c-0.19,0.39-0.28,0.85-0.28,1.37V327c0,0.48,0.1,0.89,0.29,1.25
		c0.19,0.36,0.46,0.63,0.81,0.83c0.35,0.2,0.76,0.3,1.22,0.3c0.46,0,0.85-0.1,1.2-0.31c0.34-0.2,0.61-0.5,0.8-0.89
		c0.19-0.39,0.28-0.85,0.28-1.39v-0.48h-2.24v-1.48H147.58z"/>
	<path d="M149.93,319.74h1.55v11.03h-1.55V319.74z M150.6,324.63h3.76c0.29,0,0.55-0.07,0.78-0.21c0.23-0.14,0.4-0.34,0.53-0.6
		s0.19-0.56,0.19-0.9c0-0.34-0.06-0.64-0.19-0.9s-0.3-0.46-0.52-0.6c-0.23-0.14-0.49-0.21-0.79-0.21h-3.76v-1.47h3.7
		c0.64,0,1.2,0.13,1.68,0.39c0.48,0.26,0.86,0.64,1.12,1.12c0.27,0.48,0.4,1.04,0.4,1.67c0,0.63-0.13,1.19-0.4,1.67
		c-0.27,0.48-0.64,0.86-1.13,1.12c-0.48,0.26-1.04,0.39-1.67,0.39h-3.7V324.63z M153.61,325.76l1.54-0.35l2.82,5.35h-1.83
		L153.61,325.76z"/>
	<path d="M162.67,319.74h1.32l4.06,11.02h-1.67l-3.05-8.89l-3.06,8.89h-1.67L162.67,319.74z M160.48,326.88h5.8v1.47h-5.8V326.88z"
		/>
	<path d="M177.64,319.74h1.45v11.02h-1.51v-8.25l0.08,0.49l-2.71,6.24h-1.08l-2.71-6.09l0.08-0.64v8.25h-1.51v-11.02h1.45l3.24,7.28
		L177.64,319.74z"/>
	<path d="M184.67,319.74h1.32l4.06,11.02h-1.67l-3.05-8.89l-3.05,8.89h-1.67L184.67,319.74z M182.48,326.88h5.8v1.47h-5.8V326.88z"
		/>
	<path d="M192.71,330.37c-0.58-0.34-1.03-0.82-1.34-1.44s-0.48-1.34-0.48-2.16v-3.02c0-0.82,0.16-1.54,0.48-2.16s0.77-1.1,1.34-1.44
		c0.58-0.34,1.25-0.51,2.01-0.51c0.63,0,1.21,0.14,1.74,0.41c0.53,0.27,0.97,0.65,1.33,1.15c0.36,0.5,0.6,1.07,0.72,1.72h-1.58
		c-0.1-0.34-0.26-0.65-0.48-0.92c-0.22-0.27-0.49-0.48-0.79-0.63c-0.3-0.15-0.62-0.22-0.94-0.22c-0.45,0-0.84,0.11-1.18,0.33
		s-0.6,0.52-0.79,0.91c-0.19,0.39-0.28,0.85-0.28,1.37v3.02c0,0.52,0.09,0.97,0.28,1.36c0.19,0.39,0.45,0.7,0.79,0.91
		s0.73,0.32,1.18,0.32c0.33,0,0.64-0.07,0.94-0.21c0.3-0.14,0.56-0.34,0.79-0.61c0.22-0.27,0.38-0.59,0.48-0.96h1.58
		c-0.13,0.65-0.37,1.23-0.73,1.72c-0.36,0.5-0.8,0.88-1.33,1.15c-0.53,0.27-1.11,0.41-1.74,0.41
		C193.96,330.88,193.29,330.71,192.71,330.37z"/>
	<path d="M202.11,330.77h-1.55v-11.02h1.55V330.77z"/>
	<path d="M206.45,330.38c-0.59-0.34-1.04-0.81-1.36-1.42c-0.32-0.61-0.48-1.33-0.48-2.13v-3.12c0-0.81,0.16-1.52,0.48-2.13
		c0.32-0.61,0.77-1.09,1.36-1.43c0.59-0.34,1.26-0.5,2.03-0.5c0.77,0,1.45,0.17,2.03,0.5c0.59,0.34,1.04,0.81,1.36,1.43
		c0.32,0.61,0.48,1.33,0.48,2.13v3.12c0,0.81-0.16,1.52-0.48,2.13c-0.32,0.61-0.78,1.09-1.36,1.42c-0.59,0.34-1.26,0.5-2.03,0.5
		C207.72,330.88,207.04,330.71,206.45,330.38z M209.69,329.05c0.35-0.2,0.61-0.5,0.8-0.87c0.19-0.38,0.28-0.81,0.28-1.31v-3.23
		c0-0.5-0.09-0.93-0.28-1.31s-0.46-0.67-0.8-0.87s-0.75-0.31-1.2-0.31s-0.86,0.1-1.2,0.31c-0.35,0.2-0.61,0.5-0.8,0.87
		c-0.19,0.38-0.28,0.81-0.28,1.31v3.23c0,0.5,0.09,0.93,0.28,1.31c0.19,0.38,0.46,0.67,0.8,0.87c0.35,0.2,0.75,0.31,1.2,0.31
		S209.34,329.25,209.69,329.05z M207.77,318.09l2.09-1.86l1,1.04l-2.24,1.71L207.77,318.09z"/>
	<path d="M214.71,319.74h1.4l5.39,8.52l-0.18,0.2v-8.72h1.53v11.01h-1.42l-5.38-8.39l0.18-0.2v8.59h-1.53V319.74z"/>
</g>
<linearGradient id="SVGID_1_" gradientUnits="userSpaceOnUse" x1="104.2149" y1="245.1448" x2="212.3404" y2="245.1448">
	<stop  offset="0" style="stop-color:#45A1DA"/>
	<stop  offset="1" style="stop-color:#282E66"/>
</linearGradient>
<path class="st0" d="M104.21,245.6v-0.45c0-33.17,25.9-61.33,60.2-61.33c22.26,0,36.12,9.31,47.02,20.9l-11.59,12.27
	c-9.31-9.77-19.76-17.72-35.66-17.72c-23.85,0-42.02,20.22-42.02,45.43v0.45c0,25.44,18.63,45.66,43.16,45.66
	c14.99,0,26.58-7.5,35.89-17.49l11.13,10.45c-11.81,13.17-25.9,22.72-47.93,22.72C130.11,306.48,104.21,278.54,104.21,245.6z"/>
<linearGradient id="SVGID_2_" gradientUnits="userSpaceOnUse" x1="197.2149" y1="243.4281" x2="220.7149" y2="243.4281">
	<stop  offset="0" style="stop-color:#45A1DA"/>
	<stop  offset="1" style="stop-color:#282E66"/>
</linearGradient>
<circle class="st1" cx="208.96" cy="243.43" r="11.75"/>
</svg>
